{
  "accessors": [
    {
      "bufferView": 2,
      "componentType": 5126,
      "count": 65532,
      "max": [
        25.951095581054688,
        26.81159210205078,
        27.436372756958008
      ],
      "min": [
        0.0,
        0.30237293243408203,
        0.8536891937255859
      ],
      "type": "VEC3"
    },
    {
      "bufferView": 2,
      "byteOffset": 786384,
      "componentType": 5126,
      "count": 65532,
      "max": [
        0.9999921321868896,
        0.9999015927314758,
        0.9999545812606812
      ],
      "min": [
        -0.9999238848686218,
        -0.9999963641166687,
        -0.9999603033065796
      ],
      "type": "VEC3"
    },
    {
      "bufferView": 1,
      "componentType": 5126,
      "count": 65532,
      "max": [
        0.926971971988678,
        0.990123987197876
      ],
      "min": [
        0.010471999645233154,
        0.0037640000227838755
      ],
      "type": "VEC2"
    },
    {
      "bufferView": 0,
      "componentType": 5125,
      "count": 335577,
      "type": "SCALAR"
    },
    {
      "bufferView": 2,
      "byteOffset": 1572768,
      "componentType": 5126,
      "count": 65532,
      "max": [
        25.432235717773438,
        26.664426803588867,
        28.324697494506836
      ],
      "min": [
        3.111074447631836,
        0.7777271270751953,
        1.292245864868164
      ],
      "type": "VEC3"
    },
    {
      "bufferView": 2,
      "byteOffset": 2359152,
      "componentType": 5126,
      "count": 65532,
      "max": [
        0.9999350905418396,
        0.9999985098838806,
        0.9997396469116211
      ],
      "min": [
        -0.9999926090240479,
        -0.99993497133255,
        -0.9999657273292542
      ],
      "type": "VEC3"
    },
    {
      "bufferView": 1,
      "byteOffset": 524256,
      "componentType": 5126,
      "count": 65532,
      "max": [
        0.9942989945411682,
        0.9997559785842896
      ],
      "min": [
        0.00029299999005161226,
        0.04830100014805794
      ],
      "type": "VEC2"
    },
    {
      "bufferView": 0,
      "byteOffset": 1342308,
      "componentType": 5125,
      "count": 327432,
      "type": "SCALAR"
    },
    {
      "bufferView": 2,
      "byteOffset": 3145536,
      "componentType": 5126,
      "count": 65532,
      "max": [
        25.775423049926758,
        24.88683319091797,
        28.324697494506836
      ],
      "min": [
        12.077699661254883,
        3.588888168334961,
        3.0501327514648438
      ],
      "type": "VEC3"
    },
    {
      "bufferView": 2,
      "byteOffset": 3931920,
      "componentType": 5126,
      "count": 65532,
      "max": [
        0.9999921321868896,
        0.9999783039093018,
        0.9999857544898987
      ],
      "min": [
        -0.9997079968452454,
        -0.9999907612800598,
        -0.9996371865272522
      ],
      "type": "VEC3"
    },
    {
      "bufferView": 1,
      "byteOffset": 1048512,
      "componentType": 5126,
      "count": 65532,
      "max": [
        0.9930260181427002,
        0.999530017375946
      ],
      "min": [
        0.0007479999912902713,
        0.05137399956583977
      ],
      "type": "VEC2"
    },
    {
      "bufferView": 0,
      "byteOffset": 2652036,
      "componentType": 5125,
      "count": 306237,
      "type": "SCALAR"
    },
    {
      "bufferView": 2,
      "byteOffset": 4718304,
      "componentType": 5126,
      "count": 65532,
      "max": [
        25.915889739990234,
        26.751773834228516,
        28.324697494506836
      ],
      "min": [
        3.3912925720214844,
        0.0035924911499023438,
        0.0
      ],
      "type": "VEC3"
    },
    {
      "bufferView": 2,
      "byteOffset": 5504688,
      "componentType": 5126,
      "count": 65532,
      "max": [
        0.9999921321868896,
        0.9999807476997375,
        0.9999715089797974
      ],
      "min": [
        -0.9995912909507751,
        -0.9999916553497314,
        -0.9999732375144958
      ],
      "type": "VEC3"
    },
    {
      "bufferView": 1,
      "byteOffset": 1572768,
      "componentType": 5126,
      "count": 65532,
      "max": [
        0.9936389923095703,
        1.00006103515625
      ],
      "min": [
        0.001521000056527555,
        0.0037789999041706324
      ],
      "type": "VEC2"
    },
    {
      "bufferView": 0,
      "byteOffset": 3876984,
      "componentType": 5125,
      "count": 287679,
      "type": "SCALAR"
    },
    {
      "bufferView": 2,
      "byteOffset": 6291072,
      "componentType": 5126,
      "count": 65532,
      "max": [
        20.968299865722656,
        26.797718048095703,
        23.729736328125
      ],
      "min": [
        2.8615474700927734,
        0.0,
        0.019258499145507813
      ],
      "type": "VEC3"
    },
    {
      "bufferView": 2,
      "byteOffset": 7077456,
      "componentType": 5126,
      "count": 65532,
      "max": [
        0.995502769947052,
        0.9999384880065918,
        0.9992152452468872
      ],
      "min": [
        -0.9999940395355225,
        -0.9999554753303528,
        -0.9999312162399292
      ],
      "type": "VEC3"
    },
    {
      "bufferView": 1,
      "byteOffset": 2097024,
      "componentType": 5126,
      "count": 65532,
      "max": [
        0.9959089756011963,
        0.9987810254096985
      ],
      "min": [
        0.0037140001077204943,
        0.0035250000655651093
      ],
      "type": "VEC2"
    },
    {
      "bufferView": 0,
      "byteOffset": 5027700,
      "componentType": 5125,
      "count": 321288,
      "type": "SCALAR"
    },
    {
      "bufferView": 2,
      "byteOffset": 7863840,
      "componentType": 5126,
      "count": 7020,
      "max": [
        13.104643821716309,
        25.082714080810547,
        18.95436668395996
      ],
      "min": [
        0.9145622253417969,
        5.007620811462402,
        2.6252803802490234
      ],
      "type": "VEC3"
    },
    {
      "bufferView": 2,
      "byteOffset": 7948080,
      "componentType": 5126,
      "count": 7020,
      "max": [
        0.9989776015281677,
        0.9992507696151733,
        0.9928620457649231
      ],
      "min": [
        -0.9999628663063049,
        -0.9998599886894226,
        -0.9989668726921082
      ],
      "type": "VEC3"
    },
    {
      "bufferView": 1,
      "byteOffset": 2621280,
      "componentType": 5126,
      "count": 7020,
      "max": [
        0.9946590065956116,
        0.9499350190162659
      ],
      "min": [
        0.01126800011843443,
        0.004155999980866909
      ],
      "type": "VEC2"
    },
    {
      "bufferView": 0,
      "byteOffset": 6312852,
      "componentType": 5125,
      "count": 21975,
      "type": "SCALAR"
    }
  ],
  "asset": {
    "extras": {
      "author": "The British Museum (https://sketchfab.com/britishmuseum)",
      "license": "CC-BY-NC-SA-4.0 (http://creativecommons.org/licenses/by-nc-sa/4.0/)",
      "source": "https://sketchfab.com/3d-models/chrysippos-ce1e8d2682f6409ba1f6ed9978f5b755",
      "title": "Chrysippos"
    },
    "generator": "Sketchfab-12.64.0",
    "version": "2.0"
  },
  "bufferViews": [
    {
      "buffer": 0,
      "byteLength": 6400752,
      "name": "floatBufferViews",
      "target": 34963
    },
    {
      "buffer": 0,
      "byteLength": 2677440,
      "byteOffset": 6400752,
      "byteStride": 8,
      "name": "floatBufferViews",
      "target": 34962
    },
    {
      "buffer": 0,
      "byteLength": 8032320,
      "byteOffset": 9078192,
      "byteStride": 12,
      "name": "floatBufferViews",
      "target": 34962
    }
  ],
  "buffers": [
    {
      "byteLength": 17110512,
      "uri": "scene.bin"
    }
  ],
  "extensionsUsed": [
    "KHR_materials_unlit"
  ],
  "images": [
    {
      "uri": "textures/material_0_baseColor.jpeg"
    }
  ],
  "materials": [
    {
      "doubleSided": true,
      "extensions": {
        "KHR_materials_unlit": {}
      },
      "name": "material_0",
      "pbrMetallicRoughness": {
        "baseColorTexture": {
          "index": 0
        },
        "metallicFactor": 0.0
      }
    }
  ],
  "meshes": [
    {
      "name": "Object_0",
      "primitives": [
        {
          "attributes": {
            "NORMAL": 1,
            "POSITION": 0,
            "TEXCOORD_0": 2
          },
          "indices": 3,
          "material": 0,
          "mode": 4
        }
      ]
    },
    {
      "name": "Object_1",
      "primitives": [
        {
          "attributes": {
            "NORMAL": 5,
            "POSITION": 4,
            "TEXCOORD_0": 6
          },
          "indices": 7,
          "material": 0,
          "mode": 4
        }
      ]
    },
    {
      "name": "Object_2",
      "primitives": [
        {
          "attributes": {
            "NORMAL": 9,
            "POSITION": 8,
            "TEXCOORD_0": 10
          },
          "indices": 11,
          "material": 0,
          "mode": 4
        }
      ]
    },
    {
      "name": "Object_3",
      "primitives": [
        {
          "attributes": {
            "NORMAL": 13,
            "POSITION": 12,
            "TEXCOORD_0": 14
          },
          "indices": 15,
          "material": 0,
          "mode": 4
        }
      ]
    },
    {
      "name": "Object_4",
      "primitives": [
        {
          "attributes": {
            "NORMAL": 17,
            "POSITION": 16,
            "TEXCOORD_0": 18
          },
          "indices": 19,
          "material": 0,
          "mode": 4
        }
      ]
    },
    {
      "name": "Object_5",
      "primitives": [
        {
          "attributes": {
            "NORMAL": 21,
            "POSITION": 20,
            "TEXCOORD_0": 22
          },
          "indices": 23,
          "material": 0,
          "mode": 4
        }
      ]
    }
  ],
  "nodes": [
    {
      "children": [
        1
      ],
      "matrix": [
        -0.8316816687583923,
        0.41360136866569525,
        -0.3704584836959838,
        0.0,
        -0.014318713918328285,
        -0.6829428672790526,
        -0.7303314208984376,
        0.0,
        -0.5550680756568909,
        -0.6020988225936891,
        0.5739133358001708,
        0.0,
        0.00010640191612765193,
        5.148635318619199e-05,
        -8.475360118609376e-06,
        1.0
      ],
      "name": "Sketchfab_model"
    },
    {
      "children": [
        2,
        3,
        4,
        5,
        6,
        7
      ],
      "matrix": [
        1.0,
        0.0,
        0.0,
        0.0,
        0.0,
        1.0,
        0.0,
        0.0,
        0.0,
        0.0,
        1.0,
        0.0,
        -12.975547790527344,
        -13.40579605102539,
        -14.162348747253418,
        1.0
      ],
      "name": "model.obj.cleaner.gles"
    },
    {
      "mesh": 0,
      "name": "Object_2"
    },
    {
      "mesh": 1,
      "name": "Object_3"
    },
    {
      "mesh": 2,
      "name": "Object_4"
    },
    {
      "mesh": 3,
      "name": "Object_5"
    },
    {
      "mesh": 4,
      "name": "Object_6"
    },
    {
      "mesh": 5,
      "name": "Object_7"
    }
  ],
  "samplers": [
    {
      "magFilter": 9729,
      "minFilter": 9987,
      "wrapS": 10497,
      "wrapT": 10497
    }
  ],
  "scene": 0,
  "scenes": [
    {
      "name": "Sketchfab_Scene",
      "nodes": [
        0
      ]
    }
  ],
  "textures": [
    {
      "sampler": 0,
      "source": 0
    }
  ]
}
