{
  "accessors": [
    {
      "bufferView": 2,
      "componentType": 5126,
      "count": 65532,
      "max": [
        4.307621002197266,
        11.291712760925293,
        9.559259414672852
      ],
      "min": [
        -6.757078170776367,
        -5.2578020095825195,
        -4.387362957000732
      ],
      "type": "VEC3"
    },
    {
      "bufferView": 2,
      "byteOffset": 786384,
      "componentType": 5126,
      "count": 65532,
      "max": [
        0.9999927878379822,
        0.9983826279640198,
        0.9999738931655884
      ],
      "min": [
        -0.9999528527259827,
        -0.9999562501907349,
        -0.9999717473983765
      ],
      "type": "VEC3"
    },
    {
      "bufferView": 1,
      "componentType": 5126,
      "count": 65532,
      "max": [
        0.9992679953575134,
        0.9991379976272583
      ],
      "min": [
        0.0007319999858736992,
        0.0007389999809674919
      ],
      "type": "VEC2"
    },
    {
      "bufferView": 0,
      "componentType": 5125,
      "count": 351222,
      "type": "SCALAR"
    },
    {
      "bufferView": 2,
      "byteOffset": 1572768,
      "componentType": 5126,
      "count": 65532,
      "max": [
        4.36798095703125,
        11.291105270385742,
        9.404753684997559
      ],
      "min": [
        -7.703686237335205,
        -5.497998237609863,
        -4.387362957000732
      ],
      "type": "VEC3"
    },
    {
      "bufferView": 2,
      "byteOffset": 2359152,
      "componentType": 5126,
      "count": 65532,
      "max": [
        0.9999424815177917,
        0.9998774528503418,
        0.9999863505363464
      ],
      "min": [
        -0.9999724626541138,
        -0.9999562501907349,
        -0.9999757409095764
      ],
      "type": "VEC3"
    },
    {
      "bufferView": 1,
      "byteOffset": 524256,
      "componentType": 5126,
      "count": 65532,
      "max": [
        0.9992679953575134,
        0.9992610216140747
      ],
      "min": [
        0.0007319999858736992,
        0.0007389999809674919
      ],
      "type": "VEC2"
    },
    {
      "bufferView": 0,
      "byteOffset": 1404888,
      "componentType": 5125,
      "count": 349299,
      "type": "SCALAR"
    },
    {
      "bufferView": 2,
      "byteOffset": 3145536,
      "componentType": 5126,
      "count": 53129,
      "max": [
        4.47947883605957,
        11.348457336425781,
        8.296548843383789
      ],
      "min": [
        -6.925271034240723,
        -5.131533145904541,
        -3.8658299446105957
      ],
      "type": "VEC3"
    },
    {
      "bufferView": 2,
      "byteOffset": 3783084,
      "componentType": 5126,
      "count": 53129,
      "max": [
        0.9999727606773376,
        0.9999485015869141,
        0.9990180134773254
      ],
      "min": [
        -0.9996209740638733,
        -0.9999037384986877,
        -0.9999930262565613
      ],
      "type": "VEC3"
    },
    {
      "bufferView": 1,
      "byteOffset": 1048512,
      "componentType": 5126,
      "count": 53129,
      "max": [
        0.9992679953575134,
        0.9987689852714539
      ],
      "min": [
        0.0007319999858736992,
        0.0007389999809674919
      ],
      "type": "VEC2"
    },
    {
      "bufferView": 0,
      "byteOffset": 2802084,
      "componentType": 5125,
      "count": 279933,
      "type": "SCALAR"
    }
  ],
  "asset": {
    "extras": {
      "author": "daumier1 (https://sketchfab.com/daumier1)",
      "license": "CC-BY-4.0 (http://creativecommons.org/licenses/by/4.0/)",
      "source": "https://sketchfab.com/3d-models/copia-e-studio-anatomico-da-busto-di-seneca-70fcaae909884c13b12bd286bc2c1ca4",
      "title": "Copia  e studio anatomico da busto di Seneca"
    },
    "generator": "Sketchfab-12.65.0",
    "version": "2.0"
  },
  "bufferViews": [
    {
      "buffer": 0,
      "byteLength": 3921816,
      "name": "floatBufferViews",
      "target": 34963
    },
    {
      "buffer": 0,
      "byteLength": 1473544,
      "byteOffset": 3921816,
      "byteStride": 8,
      "name": "floatBufferViews",
      "target": 34962
    },
    {
      "buffer": 0,
      "byteLength": 4420632,
      "byteOffset": 5395360,
      "byteStride": 12,
      "name": "floatBufferViews",
      "target": 34962
    }
  ],
  "buffers": [
    {
      "byteLength": 9815992,
      "uri": "scene.bin"
    }
  ],
  "images": [
    {
      "uri": "textures/Material_0_baseColor.jpeg"
    }
  ],
  "materials": [
    {
      "doubleSided": true,
      "name": "Material_0",
      "pbrMetallicRoughness": {
        "baseColorTexture": {
          "index": 0
        },
        "metallicFactor": 0.0
      }
    }
  ],
  "meshes": [
    {
      "name": "Object_0",
      "primitives": [
        {
          "attributes": {
            "NORMAL": 1,
            "POSITION": 0,
            "TEXCOORD_0": 2
          },
          "indices": 3,
          "material": 0,
          "mode": 4
        }
      ]
    },
    {
      "name": "Object_1",
      "primitives": [
        {
          "attributes": {
            "NORMAL": 5,
            "POSITION": 4,
            "TEXCOORD_0": 6
          },
          "indices": 7,
          "material": 0,
          "mode": 4
        }
      ]
    },
    {
      "name": "Object_2",
      "primitives": [
        {
          "attributes": {
            "NORMAL": 9,
            "POSITION": 8,
            "TEXCOORD_0": 10
          },
          "indices": 11,
          "material": 0,
          "mode": 4
        }
      ]
    }
  ],
  "nodes": [
    {
      "children": [
        1
      ],
      "matrix": [
        1.0,
        -2.278067227575862e-16,
        0.00013240062980912626,
        0.0,
        -2.2775021885773628e-16,
        -1.0,
        -2.390144153692649e-16,
        0.0,
        0.00013240062980912626,
        2.389842596728537e-16,
        -1.0,
        0.0,
        -0.00034239405067637563,
        5.511171340942383,
        -0.3390800654888141,
        1.0
      ],
      "name": "Sketchfab_model"
    },
    {
      "children": [
        2,
        3,
        4
      ],
      "name": "mazzitelliseneca.obj.cleaner.materialmerger.gles"
    },
    {
      "mesh": 0,
      "name": "Object_2"
    },
    {
      "mesh": 1,
      "name": "Object_3"
    },
    {
      "mesh": 2,
      "name": "Object_4"
    }
  ],
  "samplers": [
    {
      "magFilter": 9729,
      "minFilter": 9987,
      "wrapS": 10497,
      "wrapT": 10497
    }
  ],
  "scene": 0,
  "scenes": [
    {
      "name": "Sketchfab_Scene",
      "nodes": [
        0
      ]
    }
  ],
  "textures": [
    {
      "sampler": 0,
      "source": 0
    }
  ]
}
